C:\Users\r0593348\3dpredictsim\Results\Batchsim_tmt_linear_v2\Pog_s1_tmt_aCst_d05_k250_ig24_pas_GRF.mot
nRows=27
nColumns=19

name C:\Users\r0593348\3dpredictsim\Results\Batchsim_tmt_linear_v2\Pog_s1_tmt_aCst_d05_k250_ig24_pas_GRF.mot
datacolumns 19
datarows 27
range 0.0000000000 0.2817293008
endheader
time 	ground_force_vx	ground_force_vy	ground_force_vz	ground_force_px	ground_force_py	ground_force_pz	1_ground_force_vx	1_ground_force_vy	1_ground_force_vz	1_ground_force_px	1_ground_force_py	1_ground_force_pz	ground_torque_x	ground_torque_y	ground_torque_z	1_ground_torque_x	1_ground_torque_y	1_ground_torque_z
        0.0000000000	      -52.2728608314	       38.1452748384	       12.2647924044	        0.1700755284	        0.0000000000	        0.0459828555	      128.7239470282	      532.9051562740	        3.4868133358	       -0.3468116560	        0.0000000000	       -0.0469332201	        0.0000000000	        0.0000000000	        0.0000000000	        0.0000000000	        0.0000000000	        0.0000000000	
        0.0108357423	      -97.3806006850	       88.8664976159	       32.6940138857	        0.1796971818	        0.0000000000	        0.0437522960	      103.2737307827	      440.4506172326	       -1.7876684224	       -0.3366231844	        0.0000000000	       -0.0456733584	        0.0000000000	        0.0000000000	        0.0000000000	        0.0000000000	        0.0000000000	        0.0000000000	
        0.0216714847	     -103.4065851701	      191.5992085028	       63.4078949516	        0.1858917420	        0.0000000000	        0.0425362416	       69.2440180381	      337.3700251811	       -8.6278389334	       -0.3204154512	        0.0000000000	       -0.0432514362	        0.0000000000	        0.0000000000	        0.0000000000	        0.0000000000	        0.0000000000	        0.0000000000	
        0.0325072270	      -57.1307686760	      353.1036337293	       12.0065297427	        0.1909014418	        0.0000000000	        0.0413600398	       33.1239198009	      236.0974340332	       -6.9862436329	       -0.2939286237	        0.0000000000	       -0.0387240578	        0.0000000000	        0.0000000000	        0.0000000000	        0.0000000000	        0.0000000000	        0.0000000000	
        0.0433429694	      -76.2596524711	      567.4221599841	       -4.4043359548	        0.1993683200	        0.0000000000	        0.0434447875	        9.3603413591	      162.5500209439	       -9.8703423055	       -0.2620379798	        0.0000000000	       -0.0312239552	        0.0000000000	        0.0000000000	        0.0000000000	        0.0000000000	        0.0000000000	        0.0000000000	
        0.0541787117	     -112.4879952942	      779.8086647337	      -13.1269986023	        0.2083646518	        0.0000000000	        0.0460862696	       -1.6072512644	      136.7648349879	      -13.6500184271	       -0.2572215912	        0.0000000000	       -0.0297808789	        0.0000000000	        0.0000000000	        0.0000000000	        0.0000000000	        0.0000000000	        0.0000000000	
        0.0650144540	     -131.7554877662	      892.1732640681	      -16.6838358307	        0.2142691460	        0.0000000000	        0.0476978499	       -2.2110368968	      103.1642404792	      -14.2464151838	       -0.2565761342	        0.0000000000	       -0.0299080805	        0.0000000000	        0.0000000000	        0.0000000000	        0.0000000000	        0.0000000000	        0.0000000000	
        0.0758501964	     -129.7233550518	      903.5454214554	      -17.1585886923	        0.2186005369	        0.0000000000	        0.0487544031	       -4.0109627636	       65.6957384368	      -12.9581510164	       -0.2559421176	        0.0000000000	       -0.0300092615	        0.0000000000	        0.0000000000	        0.0000000000	        0.0000000000	        0.0000000000	        0.0000000000	
        0.0866859387	     -120.0190605512	      870.0206705444	      -16.6141692980	        0.2223801807	        0.0000000000	        0.0495201305	       -7.5280558156	       27.0840364091	       -6.7209857482	       -0.2560231156	        0.0000000000	       -0.0297425752	        0.0000000000	        0.0000000000	        0.0000000000	        0.0000000000	        0.0000000000	        0.0000000000	
        0.0975216811	     -107.9656558506	      835.4085988933	      -15.5836605520	        0.2263542085	        0.0000000000	        0.0501710883	        0.0884527992	       -0.0866921520	        0.0056803853	        0.0000000000	        0.0000000000	        0.0000000000	        0.0000000000	        0.0000000000	        0.0000000000	        0.0000000000	        0.0000000000	        0.0000000000	
        0.1083574234	      -98.9371792530	      811.3171150176	      -16.9730732710	        0.2316434237	        0.0000000000	        0.0508090855	        0.0001154371	       -0.0000921418	       -0.0000029869	        0.0000000000	        0.0000000000	        0.0000000000	        0.0000000000	        0.0000000000	        0.0000000000	        0.0000000000	        0.0000000000	        0.0000000000	
        0.1191931657	      -90.4024333470	      782.3329708916	      -16.6375422982	        0.2375447289	        0.0000000000	        0.0510271290	        0.0000825619	       -0.0000578282	       -0.0000031659	        0.0000000000	        0.0000000000	        0.0000000000	        0.0000000000	        0.0000000000	        0.0000000000	        0.0000000000	        0.0000000000	        0.0000000000	
        0.1300289081	      -81.1719726719	      745.1876087794	      -16.3300251215	        0.2433343787	        0.0000000000	        0.0511431768	        0.0009177222	       -0.0005770901	       -0.0000411111	        0.0000000000	        0.0000000000	        0.0000000000	        0.0000000000	        0.0000000000	        0.0000000000	        0.0000000000	        0.0000000000	        0.0000000000	
        0.1408646504	      -72.5668083926	      708.5716567015	      -16.0724658495	        0.2489595079	        0.0000000000	        0.0511512306	        0.0039947787	       -0.0023033585	       -0.0001914184	        0.0000000000	        0.0000000000	        0.0000000000	        0.0000000000	        0.0000000000	        0.0000000000	        0.0000000000	        0.0000000000	        0.0000000000	
        0.1517003927	      -64.3337811080	      677.8284395194	      -15.9491253058	        0.2544582608	        0.0000000000	        0.0511012746	       -0.0479597421	        0.0257377630	        0.0023824291	        0.0000000000	        0.0000000000	        0.0000000000	        0.0000000000	        0.0000000000	        0.0000000000	        0.0000000000	        0.0000000000	        0.0000000000	
        0.1625361351	      -56.7639917081	      653.4285847163	      -16.2551604931	        0.2597289121	        0.0000000000	        0.0510355469	       -0.0341535802	        0.0172407002	        0.0017379672	        0.0000000000	        0.0000000000	        0.0000000000	        0.0000000000	        0.0000000000	        0.0000000000	        0.0000000000	        0.0000000000	        0.0000000000	
        0.1733718774	      -49.7462660534	      634.2188931587	      -16.5073602954	        0.2647175353	        0.0000000000	        0.0509592339	       -0.0255350448	        0.0122331498	        0.0013148355	        0.0000000000	        0.0000000000	        0.0000000000	        0.0000000000	        0.0000000000	        0.0000000000	        0.0000000000	        0.0000000000	        0.0000000000	
        0.1842076198	      -44.6666332341	      619.8493851159	      -17.0474994917	        0.2693626763	        0.0000000000	        0.0508551874	       -0.0242893257	        0.0111166999	        0.0012596582	        0.0000000000	        0.0000000000	        0.0000000000	        0.0000000000	        0.0000000000	        0.0000000000	        0.0000000000	        0.0000000000	        0.0000000000	
        0.1950433621	      -40.5190529521	      609.5421489055	      -17.7475185810	        0.2736428138	        0.0000000000	        0.0507258954	       -0.0298367769	        0.0131209565	        0.0015608269	        0.0000000000	        0.0000000000	        0.0000000000	        0.0000000000	        0.0000000000	        0.0000000000	        0.0000000000	        0.0000000000	        0.0000000000	
        0.2058791044	      -36.5921329800	      601.4931531314	      -18.7966776755	        0.2776224114	        0.0000000000	        0.0505703645	       -0.0452416759	        0.0192193079	        0.0023945161	        0.0000000000	        0.0000000000	        0.0000000000	        0.0000000000	        0.0000000000	        0.0000000000	        0.0000000000	        0.0000000000	        0.0000000000	
        0.2167148468	      -32.8535964034	      594.7031740930	      -19.7198855596	        0.2813365418	        0.0000000000	        0.0504015525	       -0.0792387692	        0.0326737541	        0.0042581298	        0.0000000000	        0.0000000000	        0.0000000000	        0.0000000000	        0.0000000000	        0.0000000000	        0.0000000000	        0.0000000000	        0.0000000000	
        0.2275505891	      -29.3056405578	      588.4066645808	      -20.1382876878	        0.2847858270	        0.0000000000	        0.0502377218	       -0.1490667593	        0.0599208953	        0.0081103710	        0.0000000000	        0.0000000000	        0.0000000000	        0.0000000000	        0.0000000000	        0.0000000000	        0.0000000000	        0.0000000000	        0.0000000000	
        0.2383863315	      -25.9102198735	      581.7974453711	      -20.3379756674	        0.2879646345	        0.0000000000	        0.0500743657	       -0.2808101306	        0.1104849277	        0.0153758301	        0.0000000000	        0.0000000000	        0.0000000000	        0.0000000000	        0.0000000000	        0.0000000000	        0.0000000000	        0.0000000000	        0.0000000000	
        0.2492220738	      -22.4436198408	      574.8021865916	      -20.4293364826	        0.2908946500	        0.0000000000	        0.0499130711	       -0.5019095029	        0.1939934768	        0.0275568701	        0.0000000000	        0.0000000000	        0.0000000000	        0.0000000000	        0.0000000000	        0.0000000000	        0.0000000000	        0.0000000000	        0.0000000000	
        0.2600578161	      -18.7899165541	      566.9779494428	      -20.2471991885	        0.2935882209	        0.0000000000	        0.0497577354	       -0.8289951519	        0.3156252774	        0.0455192883	        0.0000000000	        0.0000000000	        0.0000000000	        0.0000000000	        0.0000000000	        0.0000000000	        0.0000000000	        0.0000000000	        0.0000000000	
        0.2708935585	      -15.0536432515	      558.7515869305	      -19.9378601703	        0.2960252321	        0.0000000000	        0.0496013356	       -1.2619052654	        0.4741819785	        0.0691096031	        0.0000000000	        0.0000000000	        0.0000000000	        0.0000000000	        0.0000000000	        0.0000000000	        0.0000000000	        0.0000000000	        0.0000000000	
        0.2817293008	      -11.1680990328	      551.0635922401	      -19.2650740678	        0.2981022212	        0.0000000000	        0.0494466378	       -1.7516180756	        0.6510542382	        0.0951817168	        0.0000000000	        0.0000000000	        0.0000000000	        0.0000000000	        0.0000000000	        0.0000000000	        0.0000000000	        0.0000000000	        0.0000000000	
